# xmcd
#
# Track frame offsets: 
#        150
#        25305
#        35338
#        60494
#        73768
#        95432
#        101919
#        125692
#        140975
#        159840
#        198900
#        211769
#        228575
#        250549
#
# Disc length: 3416 seconds
#
# Revision: 0
# Processed by: cddbd v1.5.2PL0 Copyright (c) Steve Scherf et al.
# Submitted via: ExactAudioCopy v1.0b3
#
DISCID=c30d560e
DTITLE=Bob Acri - Timeless
DYEAR=2001
DGENRE=
TTITLE0=Tribute To Buddy
TTITLE1=Lonely Lonely Girl (solo piano)
TTITLE2=R.B. Blues
TTITLE3=Sleep Away
TTITLE4=Wake Robin
TTITLE5=Chromabluze (solo piano)
TTITLE6=Linda Rose
TTITLE7=Guess Who
TTITLE8=Lonely Lonely Girl
TTITLE9=Bossa Nova Viejo
TTITLE10=Fugue
TTITLE11=J and B Blues
TTITLE12=Bob's Blues
TTITLE13=Sleep Away (solo piano)
EXTD=
EXTT0=
EXTT1=
EXTT2=
EXTT3=
EXTT4=
EXTT5=
EXTT6=
EXTT7=
EXTT8=
EXTT9=
EXTT10=
EXTT11=
EXTT12=
EXTT13=
PLAYORDER=
